<svg xmlns="http://www.w3.org/2000/svg" viewBox="0 0 240 200">
  <defs>
    <linearGradient id="gold" x1="0%" y1="0%" x2="100%" y2="100%">
      <stop offset="0%" style="stop-color:#f5c842"/>
      <stop offset="50%" style="stop-color:#d4a017"/>
      <stop offset="100%" style="stop-color:#f5c842"/>
    </linearGradient>
  </defs>
  <g fill="url(#gold)">
    <!-- Fleur de lis - center petal -->
    <path d="M120,12 C120,12 124,20 126,30 C128,42 128,55 126,68 C125,75 123,82 121,88 L120,90 L119,88 C117,82 115,75 114,68 C112,55 112,42 114,30 C116,20 120,12 120,12Z"/>
    <!-- Center top ball -->
    <circle cx="120" cy="10" r="5.5"/>
    <!-- Left scroll top -->
    <path d="M114,55 C108,35 95,22 85,20 C78,19 74,24 76,32 C78,40 84,48 92,55 C98,60 105,64 110,66Z"/>
    <path d="M110,48 C102,28 86,14 76,14 C68,14 65,22 68,30 C72,40 80,50 90,56Z"/>
    <!-- Right scroll top -->
    <path d="M126,55 C132,35 145,22 155,20 C162,19 166,24 164,32 C162,40 156,48 148,55 C142,60 135,64 130,66Z"/>
    <path d="M130,48 C138,28 154,14 164,14 C172,14 175,22 172,30 C168,40 160,50 150,56Z"/>
    <!-- Left scroll bottom -->
    <path d="M113,70 C106,62 96,58 90,60 C86,62 86,66 89,70 C93,74 99,76 106,76Z"/>
    <!-- Right scroll bottom -->
    <path d="M127,70 C134,62 144,58 150,60 C154,62 154,66 151,70 C147,74 141,76 134,76Z"/>
    <!-- Horizontal bar -->
    <rect x="103" y="88" width="34" height="5" rx="2.5"/>
    <!-- Vertical post -->
    <rect x="116" y="93" width="8" height="20" rx="3"/>

    <!-- Left laurel branch -->
    <g>
      <!-- Stem -->
      <path d="M100,110 C85,100 65,85 50,65 C42,54 38,44 36,36" stroke="url(#gold)" stroke-width="2.5" fill="none" stroke-linecap="round"/>
      <!-- Leaves -->
      <ellipse cx="40" cy="42" rx="5" ry="13" transform="rotate(-55,40,42)"/>
      <ellipse cx="46" cy="54" rx="5" ry="13" transform="rotate(-45,46,54)"/>
      <ellipse cx="54" cy="65" rx="5" ry="13" transform="rotate(-38,54,65)"/>
      <ellipse cx="63" cy="75" rx="5" ry="13" transform="rotate(-28,63,75)"/>
      <ellipse cx="74" cy="84" rx="5" ry="13" transform="rotate(-18,74,84)"/>
      <ellipse cx="85" cy="92" rx="5" ry="13" transform="rotate(-8,85,92)"/>
      <ellipse cx="95" cy="100" rx="5" ry="12" transform="rotate(5,95,100)"/>
      <!-- Inner leaves -->
      <ellipse cx="48" cy="46" rx="4" ry="10" transform="rotate(-75,48,46)"/>
      <ellipse cx="55" cy="56" rx="4" ry="10" transform="rotate(-65,55,56)"/>
      <ellipse cx="63" cy="66" rx="4" ry="10" transform="rotate(-55,63,66)"/>
      <ellipse cx="72" cy="76" rx="4" ry="10" transform="rotate(-42,72,76)"/>
      <ellipse cx="82" cy="85" rx="4" ry="10" transform="rotate(-30,82,85)"/>
      <ellipse cx="92" cy="94" rx="4" ry="10" transform="rotate(-15,92,94)"/>
    </g>

    <!-- Right laurel branch (mirrored) -->
    <g transform="translate(240,0) scale(-1,1)">
      <!-- Stem -->
      <path d="M100,110 C85,100 65,85 50,65 C42,54 38,44 36,36" stroke="url(#gold)" stroke-width="2.5" fill="none" stroke-linecap="round"/>
      <!-- Leaves -->
      <ellipse cx="40" cy="42" rx="5" ry="13" transform="rotate(-55,40,42)"/>
      <ellipse cx="46" cy="54" rx="5" ry="13" transform="rotate(-45,46,54)"/>
      <ellipse cx="54" cy="65" rx="5" ry="13" transform="rotate(-38,54,65)"/>
      <ellipse cx="63" cy="75" rx="5" ry="13" transform="rotate(-28,63,75)"/>
      <ellipse cx="74" cy="84" rx="5" ry="13" transform="rotate(-18,74,84)"/>
      <ellipse cx="85" cy="92" rx="5" ry="13" transform="rotate(-8,85,92)"/>
      <ellipse cx="95" cy="100" rx="5" ry="12" transform="rotate(5,95,100)"/>
      <!-- Inner leaves -->
      <ellipse cx="48" cy="46" rx="4" ry="10" transform="rotate(-75,48,46)"/>
      <ellipse cx="55" cy="56" rx="4" ry="10" transform="rotate(-65,55,56)"/>
      <ellipse cx="63" cy="66" rx="4" ry="10" transform="rotate(-55,63,66)"/>
      <ellipse cx="72" cy="76" rx="4" ry="10" transform="rotate(-42,72,76)"/>
      <ellipse cx="82" cy="85" rx="4" ry="10" transform="rotate(-30,82,85)"/>
      <ellipse cx="92" cy="94" rx="4" ry="10" transform="rotate(-15,92,94)"/>
    </g>
  </g>
</svg>
